<svg xmlns="http://www.w3.org/2000/svg" viewBox="0 0 347.76 69.31"><defs><style>.cls-1{fill:#fff;}</style></defs><title>BostonHacksHorizontal_White</title><g id="Layer_4" data-name="Layer 4"><path class="cls-1" d="M40.3,222.6a3.38,3.38,0,0,1-1.69-6.31L84.7,189.68a3.38,3.38,0,1,1,3.38,5.85L42,222.14A3.39,3.39,0,0,1,40.3,222.6Z" transform="translate(-36.92 -153.91)"/><path class="cls-1" d="M61.71,223.2A3.38,3.38,0,0,1,60,216.89l20.72-12a3.38,3.38,0,0,1,3.37,5.85l-20.72,12A3.32,3.32,0,0,1,61.71,223.2Z" transform="translate(-36.92 -153.91)"/><path class="cls-1" d="M63.34,183.37a3.38,3.38,0,0,1-1.7-6.3l12.21-7a3.38,3.38,0,1,1,3.38,5.85l-12.21,7A3.31,3.31,0,0,1,63.34,183.37Z" transform="translate(-36.92 -153.91)"/><path class="cls-1" d="M77.46,188.31a3.38,3.38,0,0,1-1.7-6.31l12.34-7.12a3.38,3.38,0,1,1,3.38,5.85l-12.34,7.13A3.41,3.41,0,0,1,77.46,188.31Z" transform="translate(-36.92 -153.91)"/><path class="cls-1" d="M52,203a3.38,3.38,0,0,1-1.69-6.31l16.22-9.37a3.38,3.38,0,0,1,3.38,5.86l-16.22,9.36A3.36,3.36,0,0,1,52,203Z" transform="translate(-36.92 -153.91)"/><path class="cls-1" d="M101.89,222.71A3.38,3.38,0,0,1,99,221L89,203.76a3.38,3.38,0,1,1,5.85-3.38l10,17.26a3.38,3.38,0,0,1-2.92,5.07Z" transform="translate(-36.92 -153.91)"/><path class="cls-1" d="M101.69,200.14a3.36,3.36,0,0,1-2.93-1.69l-5.6-9.7A3.38,3.38,0,1,1,99,185.38l5.6,9.69a3.38,3.38,0,0,1-1.24,4.62A3.31,3.31,0,0,1,101.69,200.14Z" transform="translate(-36.92 -153.91)"/><path class="cls-1" d="M84.92,171.1A3.37,3.37,0,0,1,82,169.41L76,159a3.38,3.38,0,1,1,5.85-3.37l6,10.44a3.37,3.37,0,0,1-1.23,4.61A3.32,3.32,0,0,1,84.92,171.1Z" transform="translate(-36.92 -153.91)"/><path class="cls-1" d="M114.67,222.63a3.39,3.39,0,0,1-2.93-1.69l-7.4-12.82a3.38,3.38,0,0,1,5.85-3.38l7.4,12.82a3.38,3.38,0,0,1-2.92,5.07Z" transform="translate(-36.92 -153.91)"/><path class="cls-1" d="M84.12,223.22a3.38,3.38,0,0,1-1.69-6.31l4.09-2.36a3.38,3.38,0,0,1,3.38,5.85l-4.09,2.36A3.33,3.33,0,0,1,84.12,223.22Z" transform="translate(-36.92 -153.91)"/><path class="cls-1" d="M139.83,221.8V191.72h8.89c3.22,0,5.67.66,7.33,2a7.06,7.06,0,0,1,2.5,5.88,6.66,6.66,0,0,1-1.27,4.07,7,7,0,0,1-3.48,2.47,7.28,7.28,0,0,1,5.83,7.21,7.8,7.8,0,0,1-2.58,6.22c-1.71,1.5-4.1,2.24-7.15,2.24Zm2.54-16.59h6.95a7.76,7.76,0,0,0,4.92-1.5,5.11,5.11,0,0,0,1.75-4.19,5,5,0,0,0-1.81-4.28,9,9,0,0,0-5.46-1.37h-6.35Zm0,2.15v12.29H150a7.59,7.59,0,0,0,5.17-1.66,5.76,5.76,0,0,0,1.92-4.61,5.58,5.58,0,0,0-1.83-4.4,7.37,7.37,0,0,0-5-1.62Z" transform="translate(-36.92 -153.91)"/><path class="cls-1" d="M163.82,210.29a13.17,13.17,0,0,1,1.25-5.8,9.39,9.39,0,0,1,8.71-5.46,9.2,9.2,0,0,1,7.23,3.13,12,12,0,0,1,2.77,8.3V211a13.31,13.31,0,0,1-1.25,5.84,9.36,9.36,0,0,1-3.52,4,9.66,9.66,0,0,1-5.19,1.41,9.2,9.2,0,0,1-7.22-3.14,12,12,0,0,1-2.78-8.29Zm2.48.68a10.14,10.14,0,0,0,2.08,6.59,7,7,0,0,0,10.87,0,10.52,10.52,0,0,0,2.07-6.79v-.48a11.27,11.27,0,0,0-.95-4.69,7.61,7.61,0,0,0-2.66-3.29,6.84,6.84,0,0,0-3.93-1.17,6.6,6.6,0,0,0-5.39,2.59,10.51,10.51,0,0,0-2.09,6.79Z" transform="translate(-36.92 -153.91)"/><path class="cls-1" d="M202.27,216.12a3.54,3.54,0,0,0-1.47-3,11.49,11.49,0,0,0-4.46-1.74,19.67,19.67,0,0,1-4.61-1.45,6.12,6.12,0,0,1-2.44-2,5,5,0,0,1-.8-2.85,5.32,5.32,0,0,1,2.21-4.37,8.94,8.94,0,0,1,5.66-1.73,9.22,9.22,0,0,1,6,1.85,5.93,5.93,0,0,1,2.26,4.83h-2.48a4,4,0,0,0-1.64-3.27,7.44,7.44,0,0,0-8.06-.22A3.35,3.35,0,0,0,191,205a3.06,3.06,0,0,0,1.23,2.6,13.13,13.13,0,0,0,4.49,1.68,21.6,21.6,0,0,1,4.87,1.63A6.35,6.35,0,0,1,204,213a5.75,5.75,0,0,1-1.5,7.48,9.75,9.75,0,0,1-6,1.7,10,10,0,0,1-6.33-1.9,5.81,5.81,0,0,1-2.43-4.78h2.48a4.27,4.27,0,0,0,1.83,3.38,7.42,7.42,0,0,0,4.45,1.21,7,7,0,0,0,4.17-1.14A3.41,3.41,0,0,0,202.27,216.12Z" transform="translate(-36.92 -153.91)"/><path class="cls-1" d="M214.16,193.72v5.73h4.62v2h-4.62v14.91a4.67,4.67,0,0,0,.67,2.78,2.6,2.6,0,0,0,2.24.91,15.1,15.1,0,0,0,2-.21l.11,2a8.16,8.16,0,0,1-2.65.35,4.43,4.43,0,0,1-3.7-1.48,7,7,0,0,1-1.15-4.35V201.47h-4.12v-2h4.12v-5.73Z" transform="translate(-36.92 -153.91)"/><path class="cls-1" d="M222.13,210.29a13.17,13.17,0,0,1,1.25-5.8,9.39,9.39,0,0,1,8.71-5.46,9.2,9.2,0,0,1,7.23,3.13,12,12,0,0,1,2.77,8.3V211a13.31,13.31,0,0,1-1.25,5.84,9.36,9.36,0,0,1-3.52,4,9.66,9.66,0,0,1-5.19,1.41,9.2,9.2,0,0,1-7.22-3.14,12,12,0,0,1-2.78-8.29Zm2.48.68a10.14,10.14,0,0,0,2.08,6.59,7,7,0,0,0,10.87,0,10.52,10.52,0,0,0,2.07-6.79v-.48a11.43,11.43,0,0,0-.95-4.69,7.61,7.61,0,0,0-2.66-3.29,6.84,6.84,0,0,0-3.93-1.17,6.6,6.6,0,0,0-5.39,2.59,10.51,10.51,0,0,0-2.09,6.79Z" transform="translate(-36.92 -153.91)"/><path class="cls-1" d="M249.55,199.45l.08,3.82a8.85,8.85,0,0,1,3.14-3.15,8.13,8.13,0,0,1,4.16-1.09,6.71,6.71,0,0,1,5.35,2q1.75,2,1.77,6.07V221.8H261.6V207.11a6.88,6.88,0,0,0-1.27-4.46,5,5,0,0,0-4-1.47,6.23,6.23,0,0,0-4.06,1.44,8.42,8.42,0,0,0-2.62,3.87V221.8h-2.46V199.45Z" transform="translate(-36.92 -153.91)"/><path class="cls-1" d="M294.39,221.8h-6.2V208.91H276.1V221.8h-6.2V191.72h6.2v12.19h12.09V191.72h6.2Z" transform="translate(-36.92 -153.91)"/><path class="cls-1" d="M312.36,221.8a7,7,0,0,1-.6-2,7.21,7.21,0,0,1-5.64,2.42,7.92,7.92,0,0,1-5.44-1.91,6.09,6.09,0,0,1-2.16-4.79,6.31,6.31,0,0,1,2.63-5.45q2.64-1.9,7.62-1.93h2.75v-1.28a3.69,3.69,0,0,0-.8-2.48,3.13,3.13,0,0,0-2.51-.93,3.54,3.54,0,0,0-2.37.73,2.45,2.45,0,0,0-.85,2h-6a6,6,0,0,1,1.2-3.59,7.91,7.91,0,0,1,3.39-2.6,12.47,12.47,0,0,1,4.92-.94,9.74,9.74,0,0,1,6.56,2.08,7.26,7.26,0,0,1,2.43,5.84v9.69a10.6,10.6,0,0,0,.89,4.81v.35Zm-4.94-4.15a5.15,5.15,0,0,0,2.44-.59,3.85,3.85,0,0,0,1.66-1.58v-3.84h-2.24q-4.48,0-4.77,3.1l0,.35a2.39,2.39,0,0,0,.79,1.84A3,3,0,0,0,307.42,217.65Z" transform="translate(-36.92 -153.91)"/><path class="cls-1" d="M331.39,217.4a3.91,3.91,0,0,0,2.69-.91,3.14,3.14,0,0,0,1.07-2.42h5.6a7.58,7.58,0,0,1-1.24,4.17,8.11,8.11,0,0,1-3.33,2.93,10.44,10.44,0,0,1-4.68,1.05,9.73,9.73,0,0,1-7.57-3.05c-1.84-2-2.77-4.84-2.77-8.42v-.4a11.92,11.92,0,0,1,2.75-8.24,9.62,9.62,0,0,1,7.54-3.08,9.42,9.42,0,0,1,6.73,2.39,8.41,8.41,0,0,1,2.57,6.35h-5.6a4,4,0,0,0-1.07-2.83,4,4,0,0,0-5.88.43,8.8,8.8,0,0,0-1.06,4.93v.62c0,2.31.35,4,1.05,5A3.63,3.63,0,0,0,331.39,217.4Z" transform="translate(-36.92 -153.91)"/><path class="cls-1" d="M352.28,212.83,350.13,215v6.82h-6V190.06h6v17.59l1.16-1.49,5.72-6.71h7.17l-8.08,9.31,8.79,13H358Z" transform="translate(-36.92 -153.91)"/><path class="cls-1" d="M378.87,215.62a1.92,1.92,0,0,0-1.08-1.72,12.21,12.21,0,0,0-3.48-1.13q-8-1.67-8-6.77a6.15,6.15,0,0,1,2.47-5,10,10,0,0,1,6.46-2,10.7,10.7,0,0,1,6.81,2,6.3,6.3,0,0,1,2.55,5.2h-6a2.87,2.87,0,0,0-.83-2.11,3.48,3.48,0,0,0-2.58-.84,3.61,3.61,0,0,0-2.34.68,2.14,2.14,0,0,0-.82,1.74,1.84,1.84,0,0,0,.94,1.6,9.84,9.84,0,0,0,3.17,1.05,26.62,26.62,0,0,1,3.76,1c3.15,1.16,4.73,3.16,4.73,6a5.82,5.82,0,0,1-2.62,4.94,11.33,11.33,0,0,1-6.78,1.9,11.8,11.8,0,0,1-5-1,8.39,8.39,0,0,1-3.42-2.75,6.35,6.35,0,0,1-1.24-3.77h5.66a3.13,3.13,0,0,0,1.18,2.44,4.64,4.64,0,0,0,2.93.85,4.37,4.37,0,0,0,2.6-.65A2,2,0,0,0,378.87,215.62Z" transform="translate(-36.92 -153.91)"/></g></svg>