<svg xmlns="http://www.w3.org/2000/svg" xmlns:xlink="http://www.w3.org/1999/xlink" id="Layer_1" x="0" y="0" version="1.1" viewBox="0 0 2075 1800" xml:space="preserve" style="enable-background:new 0 0 2075 1800"><style type="text/css">.st0{fill:#ef9b75}.st1,.st2{fill:#fff;stroke:#f05453;stroke-width:5;stroke-miterlimit:10}.st2{fill:none}.st3{fill:#f05453}.st4{fill:#fff}.st5{fill:#f05453;stroke:#fff;stroke-width:5;stroke-miterlimit:10}.st6{fill:#465051}.st7{font-family:&apos;Roboto-Medium&apos;}.st8{font-size:56px}.st9{fill:#1c998b}</style><polygon points="807.5 77.6 429.1 77.6 429.1 766.3 418.5 766.3 385.3 766.3 352 766.3 352 1021.1 385.3 1021.1 418.5 1021.1 429.1 1021.1 429.1 1148 1522.4 1148 1522.4 605.1 1814.5 605.1 1814.5 522.6 1522.4 522.6 1522.4 77.6 1139.2 77.6" class="st0"/><polygon points="1449.4 345.8 1449.4 399.2 1449 399.2 1449 605.1 1449.4 605.1 1449.4 626.4 837.6 626.4 837.6 624.7 429.1 624.7 429.1 720.3 837.6 720.3 837.6 799.4 837.6 848.9 837.6 1130.7 837.6 1635 882.1 1635 882.1 1731.4 981 1731.4 981 1635 981 1130.7 981 848.9 981 799.4 981 720.3 1449.4 720.3 1449.4 1012 1528.1 1012 1528.1 605.1 1528.1 605.1 1528.1 520.6 1528.1 399.2 1528.1 345.8" class="st1"/><g><rect width="59.8" height="49.8" x="1327.9" y="870.7" class="st1"/><line x1="1387.7" x2="1327.9" y1="870.7" y2="920.5" class="st2"/><line x1="1387.7" x2="1327.9" y1="920.5" y2="870.7" class="st2"/></g><g><rect width="61.3" height="159.2" x="1387.7" y="867.9" class="st3"/><rect width="54.2" height="5.4" x="1391.7" y="882.6" class="st4"/><rect width="54.2" height="5.4" x="1391.7" y="892.9" class="st4"/><rect width="54.2" height="5.4" x="1391.7" y="903.1" class="st4"/><rect width="54.2" height="5.4" x="1391.7" y="913.4" class="st4"/><rect width="54.2" height="5.4" x="1391.7" y="923.7" class="st4"/><rect width="54.2" height="5.4" x="1391.7" y="933.9" class="st4"/><rect width="54.2" height="5.4" x="1391.7" y="944.2" class="st4"/><rect width="54.2" height="5.4" x="1391.7" y="954.4" class="st4"/><rect width="54.2" height="5.4" x="1391.7" y="964.7" class="st4"/><rect width="54.2" height="5.4" x="1391.7" y="974.9" class="st4"/><rect width="54.2" height="5.4" x="1391.7" y="985.2" class="st4"/><rect width="54.2" height="5.4" x="1391.7" y="995.4" class="st4"/><rect width="54.2" height="5.4" x="1391.7" y="1005.7" class="st4"/><rect width="54.2" height="5.4" x="1391.7" y="1015.9" class="st4"/><rect width="54.2" height="5.4" x="1391.7" y="872.4" class="st4"/></g><g><rect width="47.1" height="215.1" x="933.2" y="1251.4" class="st3"/><rect width="41.6" height="6.1" x="936.3" y="1305" class="st4"/><rect width="41.6" height="6.1" x="936.3" y="1316.5" class="st4"/><rect width="41.6" height="6.1" x="936.3" y="1328" class="st4"/><rect width="41.6" height="6.1" x="936.3" y="1339.4" class="st4"/><rect width="41.6" height="6.1" x="936.3" y="1350.9" class="st4"/><rect width="41.6" height="6.1" x="936.3" y="1362.4" class="st4"/><rect width="41.6" height="6.1" x="936.3" y="1373.8" class="st4"/><rect width="41.6" height="6.1" x="936.3" y="1385.3" class="st4"/><rect width="41.6" height="6.1" x="936.3" y="1396.8" class="st4"/><rect width="41.6" height="6.1" x="936.3" y="1408.2" class="st4"/><rect width="41.6" height="6.1" x="936.3" y="1419.7" class="st4"/><rect width="41.6" height="6.1" x="936.3" y="1431.2" class="st4"/><rect width="41.6" height="6.1" x="936.3" y="1442.6" class="st4"/><rect width="41.6" height="6.1" x="936.3" y="1454.1" class="st4"/><rect width="41.6" height="6.1" x="936.3" y="1293.6" class="st4"/><rect width="41.6" height="6.1" x="936.3" y="1270.6" class="st4"/><rect width="41.6" height="6.1" x="936.3" y="1282.1" class="st4"/><rect width="41.6" height="6.1" x="936.3" y="1259.2" class="st4"/></g><polygon points="1709.8 520.6 1822.3 68.4 1690.6 68.4 1690.6 41.2 1545.3 41.2 1545.3 115.1 1528.1 115.1 1528.1 520.6" class="st5"/><polygon points="870 1408.2 853.8 1417.6 837.6 1426.9 837.6 1408.2 837.6 1389.5 853.8 1398.9" class="st3"/><polygon points="870 1442.6 853.8 1452 837.6 1461.3 837.6 1442.6 837.6 1423.9 853.8 1433.3" class="st3"/><polygon points="870 1478.8 853.8 1488.2 837.6 1497.5 837.6 1478.8 837.6 1460.2 853.8 1469.5" class="st3"/><polygon points="1495.7 560.9 1511.9 570.2 1528.1 579.6 1528.1 560.9 1528.1 542.2 1511.9 551.6" class="st3"/><rect width="53.8" height="129.8" x="1474.3" y="216.1" class="st5"/><polygon points="1528.1 125.8 1430.5 125.8 1430.5 212.8 1430.5 216.1 1430.5 345.8 1430.5 345.8 1474.3 345.8 1474.3 216.1 1528.1 216.1" class="st5"/><polygon points="1556.5 396.9 1540.3 406.3 1524.1 415.6 1524.1 396.9 1524.1 378.2 1540.3 387.6" class="st4"/><polygon points="1556.5 432.5 1540.3 441.8 1524.1 451.2 1524.1 432.5 1524.1 413.8 1540.3 423.1" class="st4"/><polygon points="1453.4 313.5 1462.7 329.7 1472.1 345.8 1453.4 345.8 1434.7 345.8 1444 329.7" class="st4"/><polygon points="1501.2 313.5 1510.5 329.7 1519.9 345.8 1501.2 345.8 1482.5 345.8 1491.8 329.7" class="st4"/><polygon points="461.5 654.4 445.3 663.8 429.1 673.1 429.1 654.4 429.1 635.7 445.3 645.1" class="st3"/><polygon points="461.5 690.6 445.3 700 429.1 709.3 429.1 690.6 429.1 672 445.3 681.3" class="st3"/><g><path d="M1539.3,264.3c0,20.4-16.6,37-37,37c-20.4,0-37-16.6-37-37s16.6-37,37-37 C1522.7,227.3,1539.3,243.9,1539.3,264.3z" class="st6"/><text class="st4 st7 st8" transform="matrix(1 0 0 1 1477.7656 283.3931)">M</text></g><g><path d="M1516.3,166.8c0,20.4-16.6,37-37,37c-20.4,0-37-16.6-37-37c0-20.4,16.6-37,37-37 C1499.7,129.8,1516.3,146.4,1516.3,166.8z" class="st6"/><text class="st4 st7 st8" transform="matrix(1 0 0 1 1454.6543 188.8813)">W</text></g><g><path d="M944,1015.9c0,20.4-16.6,37-37,37c-20.4,0-37-16.6-37-37c0-20.4,16.6-37,37-37C927.4,979,944,995.5,944,1015.9 z" class="st9"/><text class="st4 st7 st8" transform="matrix(1 0 0 1 891.0566 1035.937)">1</text></g><g><path d="M1679.2,301.3c0,20.4-16.6,37-37,37c-20.4,0-37-16.6-37-37c0-20.4,16.6-37,37-37 C1662.7,264.3,1679.2,280.9,1679.2,301.3z" class="st9"/><text class="st4 st7 st8" transform="matrix(1 0 0 1 1626.3145 322.3022)">2</text></g></svg>